<svg xmlns="http://www.w3.org/2000/svg" width="29.493" height="33.706" viewBox="0 0 29.493 33.706">
    <path id="prefix__lock-alt-regular" d="M14.746 27.123a1.84 1.84 0 0 1-1.846-1.844v-4.213a1.843 1.843 0 1 1 3.687 0v4.213a1.84 1.84 0 0 1-1.841 1.844zM29.493 15.8v14.746a3.161 3.161 0 0 1-3.16 3.16H3.16A3.161 3.161 0 0 1 0 30.546V15.8a3.161 3.161 0 0 1 3.16-3.16h2.107V9.479a9.48 9.48 0 1 1 18.96.092v3.068h2.107a3.161 3.161 0 0 1 3.159 3.161zM8.427 12.639h12.64v-3.16a6.32 6.32 0 0 0-12.64 0zM26.333 15.8H3.16v14.746h23.173z"/>
</svg>
