<svg xmlns="http://www.w3.org/2000/svg" width="29.493" height="33.706" viewBox="0 0 29.493 33.706">
    <path id="prefix__user-regular" d="M20.645 20.013c-1.889 0-2.8 1.053-5.9 1.053s-4-1.053-5.9-1.053A8.85 8.85 0 0 0 0 28.861v1.685a3.161 3.161 0 0 0 3.16 3.16h23.173a3.161 3.161 0 0 0 3.16-3.16v-1.685a8.85 8.85 0 0 0-8.848-8.848zm5.688 10.533H3.16v-1.685a5.7 5.7 0 0 1 5.688-5.688c.961 0 2.521 1.053 5.9 1.053 3.4 0 4.931-1.053 5.9-1.053a5.7 5.7 0 0 1 5.688 5.688zM14.746 18.96a9.48 9.48 0 1 0-9.48-9.48 9.482 9.482 0 0 0 9.48 9.48zm0-15.8a6.32 6.32 0 1 1-6.32 6.32 6.33 6.33 0 0 1 6.32-6.32z"/>
</svg>
