<svg xmlns="http://www.w3.org/2000/svg" width="204.264" height="272.405" viewBox="0 0 204.264 272.405">
    <path id="prefix__file-regular" d="M196.763 52.03L152.134 7.4A25.534 25.534 0 0 0 134.1-.1H25.533A25.619 25.619 0 0 0 0 25.486v221.286A25.54 25.54 0 0 0 25.533 272.3h153.2a25.54 25.54 0 0 0 25.533-25.533V70.116a25.657 25.657 0 0 0-7.5-18.086zm-20.107 16.011h-40.48v-40.48zM25.533 246.772V25.486h85.11v55.322a12.736 12.736 0 0 0 12.766 12.766h55.321v153.2z" transform="translate(0 .1)" style="fill:#575552"/>
</svg>
